<svg width="15" height="15" viewBox="0 0 15 15" fill="none" xmlns="http://www.w3.org/2000/svg">
<g id="&#240;&#159;&#166;&#134; icon &#34;Envelope&#34;">
<path id="Vector" d="M14.7158 4.95312C14.8301 4.83203 15 4.94531 15 5.13672V13.125C15 14.1602 14.3701 15 13.5938 15H1.40625C0.629883 15 0 14.1602 0 13.125V5.14062C0 4.94531 0.166992 4.83594 0.28418 4.95703C0.94043 5.63672 1.81055 6.5 4.79883 9.39453C5.41699 9.99609 6.45996 11.2617 7.5 11.2539C8.5459 11.2656 9.60938 9.97266 10.2041 9.39453C13.1924 6.5 14.0596 5.63281 14.7158 4.95312ZM7.5 10C8.17969 10.0156 9.1582 8.85938 9.65039 8.38281C13.5381 4.62109 13.834 4.29297 14.7305 3.35547C14.9004 3.17969 15 2.90625 15 2.61719V1.875C15 0.839844 14.3701 0 13.5938 0H1.40625C0.629883 0 0 0.839844 0 1.875V2.61719C0 2.90625 0.0996094 3.17578 0.269531 3.35547C1.16602 4.28906 1.46191 4.62109 5.34961 8.38281C5.8418 8.85938 6.82031 10.0156 7.5 10Z" fill="black"/>
</g>
</svg>
